<svg width="30" height="27" viewBox="0 0 30 27" fill="none" xmlns="http://www.w3.org/2000/svg">
<path d="M6.5625 27C3.4559 27 0.9375 24.6495 0.9375 21.75V11.2861C0.9375 9.61336 1.79159 8.04071 3.23713 7.0518L11.6798 1.27603C13.6601 -0.0787062 16.3531 -0.0781242 18.3327 1.27747L26.765 7.05171C28.2093 8.04073 29.0625 9.61269 29.0625 11.2846V21.75C29.0625 24.6495 26.5441 27 23.4375 27H6.5625ZM12.9631 2.5748L12.7883 2.68748L4.34559 8.46324C3.43858 9.08374 2.88085 10.049 2.81837 11.0901L2.8125 11.2861V21.75C2.8125 23.6244 4.39122 25.1547 6.37534 25.2457L6.5625 25.25L10.3125 25.2495V20.875C10.3125 18.4588 12.4112 16.5 15 16.5C17.5888 16.5 19.6875 18.4588 19.6875 20.875V25.2495L23.4375 25.25C25.4458 25.25 27.0854 23.7765 27.1829 21.9247L27.1875 21.75V11.2846C27.1875 10.2356 26.6836 9.24555 25.8216 8.583L25.6558 8.46267L17.2235 2.68844C15.9612 1.824 14.2637 1.78606 12.9631 2.5748V2.5748ZM15 18.25C13.5022 18.25 12.2778 19.3428 12.1923 20.7208L12.1875 20.875V25.25H17.8125V20.875C17.8125 19.477 16.6416 18.3343 15.1653 18.2545L15 18.25Z" fill="black"/>
</svg>
