<svg width="29" height="27" viewBox="0 0 29 27" fill="none" xmlns="http://www.w3.org/2000/svg">
<path d="M25.5882 26.25H2.64706C1.18511 26.25 0 24.9908 0 23.4375V2.8125C0 1.25918 1.18511 0 2.64706 0H25.5882C27.0502 0 28.2353 1.25918 28.2353 2.8125V23.4375C28.2353 24.9908 27.0502 26.25 25.5882 26.25ZM7.05882 5.15625C5.84057 5.15625 4.85294 6.20561 4.85294 7.5C4.85294 8.79439 5.84057 9.84375 7.05882 9.84375C8.27708 9.84375 9.26471 8.79439 9.26471 7.5C9.26471 6.20561 8.27708 5.15625 7.05882 5.15625ZM7.05882 10.7813C5.84057 10.7813 4.85294 11.8306 4.85294 13.125C4.85294 14.4194 5.84057 15.4688 7.05882 15.4688C8.27708 15.4688 9.26471 14.4194 9.26471 13.125C9.26471 11.8306 8.27708 10.7813 7.05882 10.7813ZM7.05882 16.4063C5.84057 16.4063 4.85294 17.4556 4.85294 18.75C4.85294 20.0444 5.84057 21.0938 7.05882 21.0938C8.27708 21.0938 9.26471 20.0444 9.26471 18.75C9.26471 17.4556 8.27708 16.4063 7.05882 16.4063ZM22.9412 8.4375V6.5625C22.9412 6.1742 22.6449 5.85938 22.2794 5.85938H11.25C10.8845 5.85938 10.5882 6.1742 10.5882 6.5625V8.4375C10.5882 8.8258 10.8845 9.14063 11.25 9.14063H22.2794C22.6449 9.14063 22.9412 8.8258 22.9412 8.4375ZM22.9412 14.0625V12.1875C22.9412 11.7992 22.6449 11.4844 22.2794 11.4844H11.25C10.8845 11.4844 10.5882 11.7992 10.5882 12.1875V14.0625C10.5882 14.4508 10.8845 14.7656 11.25 14.7656H22.2794C22.6449 14.7656 22.9412 14.4508 22.9412 14.0625ZM22.9412 19.6875V17.8125C22.9412 17.4242 22.6449 17.1094 22.2794 17.1094H11.25C10.8845 17.1094 10.5882 17.4242 10.5882 17.8125V19.6875C10.5882 20.0758 10.8845 20.3906 11.25 20.3906H22.2794C22.6449 20.3906 22.9412 20.0758 22.9412 19.6875Z" fill="black"/>
</svg>
