<svg width="27" height="27" viewBox="0 0 27 27" fill="none" xmlns="http://www.w3.org/2000/svg">
<g clip-path="url(#clip0_2807_10)">
<path d="M13.125 26.25C10.7187 26.25 8.75 24.2813 8.75 21.875H0V19.6875H3.28125V9.84375C3.28125 4.375 7.65625 0 13.125 0C18.5938 0 22.9688 4.375 22.9688 9.84375V19.6875H26.25V21.875H17.5C17.5 24.2813 15.5313 26.25 13.125 26.25ZM10.9375 21.875C10.9375 23.0781 11.9219 24.0625 13.125 24.0625C14.3281 24.0625 15.3125 23.0781 15.3125 21.875H10.9375ZM5.46875 19.6875H20.7812V9.84375C20.7812 5.57812 17.3906 2.1875 13.125 2.1875C8.85937 2.1875 5.46875 5.57812 5.46875 9.84375V19.6875Z" fill="black"/>
</g>
<defs>
<clipPath id="clip0_2807_10">
<rect width="26.25" height="26.25" fill="white"/>
</clipPath>
</defs>
</svg>
