<svg width="27" height="26" viewBox="0 0 27 26" fill="none" xmlns="http://www.w3.org/2000/svg">
<path d="M13.125 0C9.10437 0 5.83333 3.00219 5.83333 6.69235C5.83333 10.3825 9.10437 13.3847 13.125 13.3847C17.1456 13.3847 20.4167 10.3825 20.4167 6.69235C20.4167 3.00219 17.1456 0 13.125 0ZM13.125 10.7078C10.7129 10.7078 8.75 8.90618 8.75 6.69235C8.75 4.47852 10.7129 2.67694 13.125 2.67694C15.5371 2.67694 17.5 4.47852 17.5 6.69235C17.5 8.90618 15.5371 10.7078 13.125 10.7078ZM26.25 25.4309V24.0925C26.25 18.9273 21.6694 14.7232 16.0417 14.7232H10.2083C4.57917 14.7232 0 18.9273 0 24.0925V25.4309H2.91667V24.0925C2.91667 20.4023 6.18771 17.4001 10.2083 17.4001H16.0417C20.0623 17.4001 23.3333 20.4023 23.3333 24.0925V25.4309H26.25Z" fill="black"/>
</svg>
